<svg width="46" height="35" viewBox="0 0 46 35" fill="none" xmlns="http://www.w3.org/2000/svg">
<path d="M15.01 34.2027C23.2998 34.2027 30.02 32.9088 30.02 31.3127C30.02 29.7166 23.2998 28.4227 15.01 28.4227C6.72021 28.4227 0 29.7166 0 31.3127C0 32.9088 6.72021 34.2027 15.01 34.2027Z" fill="#48E0FF"/>
<path d="M17.08 30.5526C17.3671 25.2411 18.6992 20.0384 21 15.2426L15.64 16.0826C14.6483 20.845 14.0993 25.689 14 30.5526" fill="#FFDEA8"/>
<path d="M14 31.0526C13.8682 31.05 13.7425 30.9965 13.6493 30.9033C13.5561 30.8101 13.5026 30.6844 13.5 30.5526C13.6092 25.6589 14.1648 20.7853 15.16 15.9926C15.1796 15.8932 15.2296 15.8023 15.303 15.7324C15.3764 15.6626 15.4697 15.6172 15.57 15.6026L20.93 14.7626C21.0201 14.7481 21.1125 14.7586 21.1971 14.7929C21.2817 14.8272 21.3553 14.884 21.4099 14.9572C21.4645 15.0303 21.498 15.117 21.5069 15.2079C21.5157 15.2988 21.4995 15.3903 21.46 15.4726C19.1978 20.206 17.8799 25.335 17.58 30.5726C17.58 30.7052 17.5273 30.8324 17.4336 30.9262C17.3398 31.0199 17.2126 31.0726 17.08 31.0726C16.9465 31.07 16.8193 31.0151 16.7258 30.9197C16.6323 30.8244 16.58 30.6961 16.58 30.5626C16.8439 25.4904 18.0618 20.5135 20.17 15.8926L16.07 16.5426C15.1341 21.1535 14.6121 25.8388 14.51 30.5426C14.51 30.6761 14.4577 30.8044 14.3642 30.8997C14.2707 30.9951 14.1435 31.05 14.01 31.0526H14Z" fill="#595757"/>
<path d="M15.63 16.3026C26.22 13.3026 24.09 17.7726 32.39 17.3026C40.69 16.8326 45.32 10.1426 45.32 10.1426C33.69 8.48261 35.53 6.33261 30.12 2.45261C24.71 -1.42739 20.46 1.59261 20.46 1.59261C18.2268 6.24099 16.6034 11.1583 15.63 16.2226V16.3026Z" fill="#48E0FF"/>
<path d="M31.2 17.8427C29.2466 17.8778 27.3099 17.4781 25.53 16.6727C23.53 15.8327 21.72 15.1227 15.77 16.7827C15.6953 16.8023 15.6172 16.8052 15.5412 16.7914C15.4651 16.7776 15.3931 16.7473 15.33 16.7027C15.27 16.6542 15.2211 16.5934 15.1867 16.5244C15.1522 16.4554 15.1328 16.3798 15.13 16.3027V16.2227C15.13 16.2227 15.13 16.1527 15.13 16.1227C16.1051 11.0152 17.7422 6.05672 20 1.37274C20.0361 1.29671 20.0912 1.23128 20.16 1.18274C20.16 1.18274 24.76 -1.98726 30.4 2.05274C31.6225 2.9469 32.7606 3.95109 33.8 5.05274C35.86 7.14274 37.23 8.52274 45.38 9.68274C45.4625 9.6955 45.5405 9.72873 45.6069 9.77938C45.6733 9.83004 45.7259 9.89651 45.76 9.97274C45.8021 10.0475 45.8241 10.1319 45.8241 10.2177C45.8241 10.3036 45.8021 10.3879 45.76 10.4627C45.56 10.7427 40.91 17.3527 32.45 17.8327C32 17.8327 31.58 17.8427 31.2 17.8427ZM21.62 14.7827C23.1059 14.7983 24.5703 15.1397 25.91 15.7827C27.9329 16.6972 30.1609 17.0628 32.37 16.8427C38.79 16.4827 42.99 12.2127 44.37 10.5527C36.66 9.32274 35.23 7.88274 33.1 5.73274C32.0997 4.67848 31.0051 3.71782 29.83 2.86274C25.17 -0.477264 21.5 1.52274 20.83 1.93274C18.7484 6.28685 17.2134 10.8817 16.26 15.6127C18.0039 15.1085 19.8052 14.8295 21.62 14.7827Z" fill="#595757"/>
<path d="M19.88 31.8125C19.8271 31.822 19.7729 31.822 19.72 31.8125C16.9653 30.8089 13.9448 30.8089 11.19 31.8125C11.0694 31.8695 10.931 31.8763 10.8053 31.8313C10.6797 31.7862 10.5771 31.6932 10.52 31.5725C10.463 31.4518 10.4563 31.3134 10.5013 31.1878C10.5463 31.0621 10.6394 30.9595 10.76 30.9025C10.91 30.8325 14.6 29.1325 20.03 30.9025C20.1627 30.9224 20.2819 30.9941 20.3616 31.102C20.4413 31.2098 20.4749 31.3449 20.455 31.4775C20.4352 31.6101 20.3634 31.7294 20.2556 31.8091C20.1477 31.8888 20.0126 31.9224 19.88 31.9025V31.8125Z" fill="#595757"/>
</svg>
