<svg width="46" height="35" viewBox="0 0 46 35" fill="none" xmlns="http://www.w3.org/2000/svg">
<path d="M15.01 34.2027C23.2998 34.2027 30.02 32.9088 30.02 31.3127C30.02 29.7166 23.2998 28.4227 15.01 28.4227C6.72021 28.4227 0 29.7166 0 31.3127C0 32.9088 6.72021 34.2027 15.01 34.2027Z" fill="#FFE202"/>
<path d="M17.08 30.5524C17.3671 25.241 18.6992 20.0383 21 15.2424L15.64 16.0824C14.6483 20.8449 14.0993 25.6888 14 30.5524" fill="#FFDEA8"/>
<path d="M14 31.0525C13.8682 31.05 13.7425 30.9965 13.6493 30.9033C13.5561 30.81 13.5026 30.6843 13.5 30.5525C13.6092 25.6588 14.1648 20.7853 15.16 15.9925C15.1796 15.8931 15.2296 15.8022 15.303 15.7324C15.3764 15.6625 15.4697 15.6172 15.57 15.6025L20.93 14.7625C21.0201 14.7481 21.1125 14.7586 21.1971 14.7929C21.2817 14.8272 21.3553 14.884 21.4099 14.9571C21.4645 15.0303 21.498 15.117 21.5069 15.2078C21.5157 15.2987 21.4995 15.3902 21.46 15.4725C19.1978 20.206 17.8799 25.3349 17.58 30.5725C17.58 30.7051 17.5273 30.8323 17.4336 30.9261C17.3398 31.0199 17.2126 31.0725 17.08 31.0725C16.9465 31.0699 16.8193 31.015 16.7258 30.9197C16.6323 30.8243 16.58 30.6961 16.58 30.5625C16.8439 25.4903 18.0618 20.5134 20.17 15.8925L16.07 16.5425C15.1341 21.1534 14.6121 25.8387 14.51 30.5425C14.51 30.6761 14.4577 30.8043 14.3642 30.8997C14.2707 30.995 14.1435 31.0499 14.01 31.0525H14Z" fill="#595757"/>
<path d="M15.63 16.3027C26.22 13.3027 24.09 17.7727 32.39 17.3027C40.69 16.8327 45.32 10.1427 45.32 10.1427C33.69 8.48273 35.53 6.33273 30.12 2.45273C24.71 -1.42727 20.46 1.59273 20.46 1.59273C18.2268 6.24111 16.6034 11.1585 15.63 16.2227V16.3027Z" fill="#FFE202"/>
<path d="M31.2 17.8426C29.2466 17.8777 27.3099 17.478 25.53 16.6726C23.53 15.8326 21.72 15.1226 15.77 16.7826C15.6953 16.8022 15.6172 16.8051 15.5412 16.7913C15.4651 16.7775 15.3931 16.7472 15.33 16.7026C15.27 16.6541 15.2211 16.5933 15.1867 16.5243C15.1522 16.4553 15.1328 16.3797 15.13 16.3026V16.2226C15.13 16.2226 15.13 16.1526 15.13 16.1226C16.1051 11.0151 17.7422 6.0566 20 1.37261C20.0361 1.29659 20.0912 1.23115 20.16 1.18261C20.16 1.18261 24.76 -1.98739 30.4 2.05261C31.6225 2.94678 32.7606 3.95097 33.8 5.05261C35.86 7.14261 37.23 8.52261 45.38 9.68261C45.4625 9.69538 45.5405 9.72861 45.6069 9.77926C45.6733 9.82992 45.7259 9.89639 45.76 9.97261C45.8021 10.0474 45.8241 10.1318 45.8241 10.2176C45.8241 10.3034 45.8021 10.3878 45.76 10.4626C45.56 10.7426 40.91 17.3526 32.45 17.8326C32 17.8326 31.58 17.8426 31.2 17.8426ZM21.62 14.7826C23.1059 14.7982 24.5703 15.1396 25.91 15.7826C27.9329 16.6971 30.1609 17.0627 32.37 16.8426C38.79 16.4826 42.99 12.2126 44.37 10.5526C36.66 9.32261 35.23 7.88261 33.1 5.73261C32.0997 4.67836 31.0051 3.7177 29.83 2.86261C25.17 -0.477386 21.5 1.52261 20.83 1.93261C18.7484 6.28673 17.2134 10.8816 16.26 15.6126C18.0039 15.1083 19.8052 14.8294 21.62 14.7826Z" fill="#595757"/>
<path d="M19.88 31.8126C19.8271 31.8221 19.7729 31.8221 19.72 31.8126C16.9653 30.809 13.9448 30.809 11.19 31.8126C11.0694 31.8696 10.931 31.8763 10.8053 31.8313C10.6797 31.7863 10.5771 31.6932 10.52 31.5726C10.463 31.4519 10.4563 31.3135 10.5013 31.1878C10.5463 31.0622 10.6394 30.9596 10.76 30.9026C10.91 30.8326 14.6 29.1326 20.03 30.9026C20.1627 30.9224 20.2819 30.9942 20.3616 31.102C20.4413 31.2099 20.4749 31.3449 20.455 31.4776C20.4352 31.6102 20.3634 31.7294 20.2556 31.8091C20.1477 31.8888 20.0126 31.9224 19.88 31.9026V31.8126Z" fill="#595757"/>
</svg>
