<svg width="46" height="35" viewBox="0 0 46 35" fill="none" xmlns="http://www.w3.org/2000/svg">
<path d="M15.01 34.2026C23.2998 34.2026 30.02 32.9087 30.02 31.3126C30.02 29.7165 23.2998 28.4226 15.01 28.4226C6.72021 28.4226 0 29.7165 0 31.3126C0 32.9087 6.72021 34.2026 15.01 34.2026Z" fill="#DF8763"/>
<path d="M17.08 30.5524C17.3671 25.241 18.6992 20.0383 21 15.2424L15.64 16.0824C14.6483 20.8449 14.0993 25.6888 14 30.5524" fill="#FFDEA8"/>
<path d="M14 31.0524C13.8682 31.0499 13.7425 30.9964 13.6493 30.9031C13.5561 30.8099 13.5026 30.6842 13.5 30.5524C13.6092 25.6587 14.1648 20.7851 15.16 15.9924C15.1796 15.893 15.2296 15.8021 15.303 15.7323C15.3764 15.6624 15.4697 15.617 15.57 15.6024L20.93 14.7624C21.0201 14.748 21.1125 14.7584 21.1971 14.7927C21.2817 14.827 21.3553 14.8839 21.4099 14.957C21.4645 15.0302 21.498 15.1169 21.5069 15.2077C21.5157 15.2986 21.4995 15.3901 21.46 15.4724C19.1978 20.2058 17.8799 25.3348 17.58 30.5724C17.58 30.705 17.5273 30.8322 17.4336 30.926C17.3398 31.0197 17.2126 31.0724 17.08 31.0724C16.9465 31.0698 16.8193 31.0149 16.7258 30.9196C16.6323 30.8242 16.58 30.696 16.58 30.5624C16.8439 25.4902 18.0618 20.5133 20.17 15.8924L16.07 16.5424C15.1341 21.1533 14.6121 25.8386 14.51 30.5424C14.51 30.676 14.4577 30.8042 14.3642 30.8996C14.2707 30.9949 14.1435 31.0498 14.01 31.0524H14Z" fill="#595757"/>
<path d="M15.63 16.3025C26.22 13.3025 24.09 17.7725 32.39 17.3025C40.69 16.8325 45.32 10.1425 45.32 10.1425C33.69 8.48249 35.53 6.33249 30.12 2.45249C24.71 -1.42751 20.46 1.59249 20.46 1.59249C18.2268 6.24086 16.6034 11.1582 15.63 16.2225V16.3025Z" fill="#DF8763"/>
<path d="M31.2 17.8426C29.2466 17.8777 27.3099 17.478 25.53 16.6726C23.53 15.8326 21.72 15.1226 15.77 16.7826C15.6953 16.8022 15.6172 16.8051 15.5412 16.7913C15.4651 16.7775 15.3931 16.7472 15.33 16.7026C15.27 16.6541 15.2211 16.5933 15.1867 16.5243C15.1522 16.4553 15.1328 16.3797 15.13 16.3026V16.2226C15.13 16.2226 15.13 16.1526 15.13 16.1226C16.1051 11.0151 17.7422 6.0566 20 1.37261C20.0361 1.29659 20.0912 1.23115 20.16 1.18261C20.16 1.18261 24.76 -1.98739 30.4 2.05261C31.6225 2.94678 32.7606 3.95097 33.8 5.05261C35.86 7.14261 37.23 8.52261 45.38 9.68261C45.4625 9.69538 45.5405 9.72861 45.6069 9.77926C45.6733 9.82992 45.7259 9.89639 45.76 9.97261C45.8021 10.0474 45.8241 10.1318 45.8241 10.2176C45.8241 10.3034 45.8021 10.3878 45.76 10.4626C45.56 10.7426 40.91 17.3526 32.45 17.8326C32 17.8326 31.58 17.8426 31.2 17.8426ZM21.62 14.7826C23.1059 14.7982 24.5703 15.1396 25.91 15.7826C27.9329 16.6971 30.1609 17.0627 32.37 16.8426C38.79 16.4826 42.99 12.2126 44.37 10.5526C36.66 9.32261 35.23 7.88261 33.1 5.73261C32.0997 4.67836 31.0051 3.7177 29.83 2.86261C25.17 -0.477386 21.5 1.52261 20.83 1.93261C18.7484 6.28673 17.2134 10.8816 16.26 15.6126C18.0039 15.1083 19.8052 14.8294 21.62 14.7826Z" fill="#595757"/>
<path d="M19.88 31.8123C19.8271 31.8219 19.7729 31.8219 19.72 31.8123C16.9653 30.8087 13.9448 30.8087 11.19 31.8123C11.0694 31.8693 10.931 31.8761 10.8053 31.8311C10.6797 31.7861 10.5771 31.693 10.52 31.5723C10.463 31.4516 10.4563 31.3133 10.5013 31.1876C10.5463 31.062 10.6394 30.9593 10.76 30.9023C10.91 30.8323 14.6 29.1323 20.03 30.9023C20.1627 30.9222 20.2819 30.994 20.3616 31.1018C20.4413 31.2096 20.4749 31.3447 20.455 31.4773C20.4352 31.6099 20.3634 31.7292 20.2556 31.8089C20.1477 31.8886 20.0126 31.9222 19.88 31.9023V31.8123Z" fill="#595757"/>
</svg>
